<svg width="32" height="30" viewBox="0 0 32 30" fill="none" xmlns="http://www.w3.org/2000/svg">
<path fill-rule="evenodd" clip-rule="evenodd" d="M7.06471 15C7.06471 14.0257 7.23517 13.0915 7.53977 12.2154L2.21104 8.355C1.17246 10.3554 0.587463 12.6096 0.587463 15C0.587463 17.3885 1.17197 19.6411 2.20881 21.6403L7.53458 17.7724C7.23294 16.9003 7.06471 15.9696 7.06471 15Z" fill="#FBBC05"/>
<path fill-rule="evenodd" clip-rule="evenodd" d="M16.4207 6.13641C18.6518 6.13641 20.6669 6.88641 22.2502 8.11359L26.8561 3.75C24.0495 1.4318 20.451 0 16.4207 0C10.1636 0 4.78597 3.39469 2.21103 8.355L7.53952 12.2154C8.76733 8.67961 12.2672 6.13641 16.4207 6.13641Z" fill="#EA4335"/>
<path fill-rule="evenodd" clip-rule="evenodd" d="M16.4207 23.8636C12.2674 23.8636 8.76757 21.3204 7.53977 17.7846L2.21103 21.6443C4.78597 26.6053 10.1636 30 16.4207 30C20.2825 30 23.9697 28.699 26.7368 26.2615L21.6788 22.5518C20.2517 23.4047 18.4544 23.8636 16.4207 23.8636Z" fill="#34A853"/>
<path fill-rule="evenodd" clip-rule="evenodd" d="M31.5342 15C31.5342 14.1136 31.3901 13.159 31.1742 12.2728H16.4207V18.0682H24.9131C24.4885 20.0442 23.3328 21.5632 21.6788 22.5518L26.7368 26.2615C29.6435 23.7021 31.5342 19.8893 31.5342 15Z" fill="#4285F4"/>
</svg>
