<svg width="232" height="189" viewBox="0 0 232 189" fill="none" xmlns="http://www.w3.org/2000/svg">
<path d="M116 189C179.899 189 231.7 185.976 231.7 182.245C231.7 178.514 179.899 175.49 116 175.49C52.1009 175.49 0.300415 178.514 0.300415 182.245C0.300415 185.976 52.1009 189 116 189Z" fill="#CCCCCC"/>
<path d="M178.322 0.631033C178.322 0.631033 169.968 -3.03288 167.516 7.29648C165.528 15.6149 161.351 18.7298 161.351 18.7298C161.351 18.7298 176.12 24.4345 184.355 17.7452L178.322 0.631033Z" fill="#04113A"/>
<path d="M168.614 35.4084C168.309 36.2319 168.017 36.936 167.695 37.676C167.372 38.4159 167.038 39.126 166.698 39.8421C166.012 41.2743 165.236 42.6587 164.448 44.0192C162.851 46.7967 161 49.4197 158.917 51.8542L158.517 52.3078C158.374 52.4689 158.302 52.5703 158.004 52.8746C157.449 53.4325 156.764 53.8428 156.011 54.0681C155.322 54.2618 154.599 54.3025 153.892 54.1874C153.329 54.0987 152.78 53.9383 152.257 53.7101C151.407 53.3298 150.606 52.849 149.87 52.2779C149.2 51.7627 148.558 51.2109 147.949 50.625C145.69 48.3723 143.699 45.8652 142.017 43.1539L144.136 41.5547C146.154 43.6967 148.324 45.6909 150.628 47.522C151.62 48.3324 152.731 48.9846 153.922 49.4554C154.399 49.6165 154.728 49.5449 154.644 49.521C154.561 49.4972 154.567 49.521 154.584 49.521C154.602 49.521 154.716 49.348 154.811 49.2167L155.139 48.7871C156.885 46.4525 158.46 43.9956 159.854 41.4354C160.558 40.1464 161.214 38.8277 161.853 37.5029C162.169 36.8406 162.479 36.1782 162.778 35.5099C163.076 34.8415 163.374 34.1433 163.613 33.5406L168.614 35.4084Z" fill="#FFAC8C"/>
<path d="M166.913 28.2298C164.681 28.1462 160.755 36.2617 160.755 36.2617L166.561 43.2971C166.561 43.2971 173.328 34.8057 172.403 32.0608C171.412 29.2024 170.159 28.3431 166.913 28.2298Z" fill="#04113A"/>
<path opacity="0.2" d="M166.543 30.1871L163.523 39.6453L166.245 42.9332L166.543 30.1871Z" fill="black"/>
<path d="M143.658 44.1266L137.482 42.5632L141.659 39.2633C141.659 39.2633 144.762 40.5701 144.959 42.7422L143.658 44.1266Z" fill="#FFAC8C"/>
<path d="M134.588 39.9136L137.793 37.5267L141.635 39.2632L137.452 42.5631L134.588 39.9136Z" fill="#FFAC8C"/>
<path d="M182.672 173.885H177.433L177.69 161.748H182.929L182.672 173.885Z" fill="#FFAC8C"/>
<path d="M176.926 173.276H182.834C182.935 173.275 183.033 173.311 183.11 173.377C183.186 173.443 183.237 173.534 183.251 173.634L183.92 178.295C183.932 178.413 183.92 178.532 183.883 178.644C183.847 178.757 183.787 178.861 183.707 178.949C183.628 179.036 183.531 179.107 183.422 179.154C183.314 179.202 183.197 179.226 183.078 179.226C181.025 179.19 180.035 179.071 177.445 179.071C175.852 179.071 171.281 179.238 169.091 179.238C166.901 179.238 166.776 177.06 167.689 176.851C171.794 175.968 174.694 174.75 176.079 173.587C176.318 173.391 176.617 173.281 176.926 173.276Z" fill="#04113A"/>
<g opacity="0.2">
<path d="M177.69 161.748L177.559 168.007H182.798L182.935 161.748H177.69Z" fill="black"/>
</g>
<path d="M164.807 30.8254C164.693 34.1432 165.266 41.8828 168.751 59.898L190.03 59.2654C189.433 50.6188 189.248 45.2781 192.859 27.3823C189.861 26.8567 186.83 26.5476 183.788 26.4573C180.563 26.3241 177.333 26.4218 174.121 26.7497C171.663 27.0481 169.007 27.5553 167.265 27.9432C166.593 28.0818 165.987 28.4405 165.541 28.9625C165.096 29.4845 164.837 30.14 164.807 30.8254Z" fill="#04113A"/>
<path d="M182.505 15.6149C181.986 18.7417 181.551 24.4584 183.788 26.4634C182.106 29.1114 179.458 30.9995 176.407 31.7265C171.502 29.2382 174.121 26.7498 174.121 26.7498C177.564 25.8189 177.397 23.247 176.723 20.8482L182.505 15.6149Z" fill="#FFAC8C"/>
<path d="M176.407 31.7265L177.039 30.4854L180.447 31.2551L176.407 31.7265Z" fill="#E0E0E0"/>
<path d="M177.039 30.4854C178.137 29.9841 183.198 26.6902 183.395 25.6578C183.794 26.0934 185.937 26.2247 185.937 26.2247C185.937 26.2247 184.654 32.1144 182.171 36.4228C180.477 32.5799 178.865 31.6788 177.039 30.4854Z" fill="white"/>
<path d="M176.407 31.7265L176.12 30.4854L174.032 30.6345L176.407 31.7265Z" fill="#E0E0E0"/>
<path d="M176.121 30.4852C174.432 29.3633 174.844 27.0182 175.011 25.9918C174.611 26.4215 172.469 26.5527 172.469 26.5527C172.469 26.5527 169.437 32.1142 171.926 36.4226C173.101 33.3316 174.295 31.6786 176.121 30.4852Z" fill="white"/>
<path opacity="0.2" d="M180.148 17.7452L176.729 20.8482C176.892 21.4063 177.008 21.9772 177.075 22.5549C178.394 22.3221 180.172 20.8124 180.268 19.422C180.33 18.8605 180.29 18.2923 180.148 17.7452Z" fill="black"/>
<path d="M184.206 8.4541C184.14 13.6576 184.206 15.8595 181.736 18.6462C177.988 22.8233 171.591 21.6299 170.123 16.5099C168.787 11.9092 169.115 4.17556 174.092 1.86025C175.186 1.34499 176.395 1.11823 177.602 1.20153C178.809 1.28483 179.974 1.67541 180.988 2.33616C182.001 2.99692 182.829 3.90589 183.393 4.97669C183.956 6.04749 184.236 7.24455 184.206 8.4541Z" fill="#FFAC8C"/>
<path d="M183.782 10.9546L177.248 10.6323C177.229 10.6316 177.209 10.627 177.192 10.6187C177.174 10.6105 177.158 10.5989 177.144 10.5845C177.131 10.5701 177.121 10.5532 177.114 10.5348C177.107 10.5164 177.104 10.4968 177.105 10.4772C177.106 10.4571 177.111 10.4373 177.119 10.4191C177.128 10.4009 177.14 10.3846 177.155 10.3712C177.17 10.3578 177.188 10.3476 177.207 10.3412C177.226 10.3348 177.246 10.3324 177.266 10.334L183.8 10.6562C183.82 10.6577 183.839 10.6631 183.857 10.672C183.874 10.6809 183.89 10.6932 183.902 10.7082C183.915 10.7232 183.925 10.7405 183.931 10.7593C183.937 10.778 183.939 10.7977 183.938 10.8173C183.937 10.8367 183.932 10.8557 183.924 10.8732C183.916 10.8907 183.904 10.9063 183.889 10.9191C183.875 10.932 183.858 10.9417 183.839 10.9478C183.821 10.9539 183.802 10.9562 183.782 10.9546Z" fill="white"/>
<path d="M168.751 59.8982C168.751 59.8982 171.442 98.8347 172.928 114.749C174.485 131.309 176.508 166.796 176.508 166.796H183.592C183.592 166.796 185.071 130.706 184.511 114.373C183.914 96.5731 184.29 59.4387 184.29 59.4387L168.751 59.8982Z" fill="#04113A"/>
<path d="M184.248 167.046H175.936L175.321 164.397L184.636 164.069L184.248 167.046Z" fill="#C579FF"/>
<path opacity="0.2" d="M184.236 73.3422C183.377 72.3874 182.446 72.8827 181.384 75.6038C177.845 84.8889 181.616 99.7056 184.367 108.239C184.182 97.6171 184.188 83.6417 184.236 73.3422Z" fill="black"/>
<path d="M175.673 10.6979C175.673 11.1216 175.482 11.4736 175.207 11.4856C174.933 11.4975 174.694 11.1693 174.67 10.7456C174.647 10.322 174.855 9.96989 175.136 9.95796C175.416 9.94602 175.673 10.2742 175.673 10.6979Z" fill="#04113A"/>
<path d="M170.899 10.8411C170.899 11.2648 170.708 11.6169 170.434 11.6288C170.159 11.6407 169.92 11.3125 169.897 10.8889C169.873 10.4652 170.082 10.1131 170.362 10.1012C170.642 10.0892 170.899 10.3876 170.899 10.8411Z" fill="#04113A"/>
<path d="M170.475 10.0893L169.449 9.8446C169.449 9.8446 170.01 10.6144 170.475 10.0893Z" fill="#04113A"/>
<path d="M172.737 11.1573C172.409 12.1392 171.947 13.0709 171.365 13.9262C171.587 14.0717 171.839 14.166 172.102 14.2021C172.365 14.2382 172.633 14.2153 172.886 14.135L172.737 11.1573Z" fill="#ED847E"/>
<path d="M175.267 15.6743C175.071 15.7154 174.871 15.7414 174.67 15.7519C174.654 15.7527 174.637 15.7502 174.622 15.7447C174.606 15.7391 174.592 15.7305 174.58 15.7194C174.568 15.7084 174.558 15.695 174.551 15.6801C174.544 15.6651 174.54 15.649 174.539 15.6325C174.54 15.6007 174.553 15.5705 174.575 15.5474C174.597 15.5244 174.627 15.5101 174.658 15.5072C175.185 15.494 175.7 15.3562 176.163 15.1052C176.625 14.8542 177.022 14.4971 177.32 14.0631C177.328 14.049 177.34 14.0367 177.353 14.0269C177.366 14.0171 177.382 14.0101 177.398 14.0062C177.414 14.0023 177.43 14.0016 177.447 14.0043C177.463 14.0069 177.479 14.0127 177.493 14.0214C177.507 14.0294 177.519 14.0401 177.529 14.0529C177.539 14.0657 177.546 14.0804 177.549 14.096C177.553 14.1116 177.554 14.1278 177.551 14.1437C177.549 14.1596 177.543 14.1748 177.535 14.1885C177.276 14.576 176.942 14.9073 176.552 15.1626C176.163 15.418 175.726 15.592 175.267 15.6743Z" fill="#04113A"/>
<path d="M185.817 13.1445C185.666 13.6187 185.423 14.0583 185.101 14.4382C184.779 14.8181 184.386 15.1308 183.944 15.3584C182.75 15.9551 181.903 14.9586 182.016 13.6995C182.118 12.5717 182.858 10.8889 184.158 10.8113C184.443 10.7993 184.725 10.8586 184.981 10.9836C185.236 11.1087 185.457 11.2957 185.621 11.5275C185.786 11.7594 185.89 12.0287 185.925 12.3112C185.959 12.5936 185.922 12.88 185.817 13.1445Z" fill="#FFAC8C"/>
<path d="M177.541 9.24196C177.49 9.25343 177.437 9.24798 177.389 9.22643C177.342 9.20488 177.303 9.16843 177.278 9.12262C176.711 8.12608 175.237 7.97093 175.225 7.96497C175.193 7.96183 175.162 7.9524 175.134 7.93721C175.105 7.92202 175.08 7.90137 175.059 7.87643C175.039 7.85149 175.023 7.82277 175.014 7.79188C175.005 7.761 175.001 7.72857 175.005 7.69644C175.008 7.66431 175.017 7.63311 175.032 7.60463C175.048 7.57614 175.068 7.55093 175.093 7.53043C175.118 7.50993 175.147 7.49454 175.178 7.48514C175.209 7.47574 175.241 7.47251 175.273 7.47565C175.345 7.47565 177.016 7.65467 177.708 8.87796C177.725 8.90602 177.736 8.93722 177.741 8.9697C177.745 9.00218 177.743 9.03527 177.735 9.067C177.727 9.09874 177.712 9.12847 177.692 9.15442C177.672 9.18038 177.647 9.20203 177.618 9.21809L177.541 9.24196Z" fill="#04113A"/>
<path d="M169.36 8.40651C169.317 8.41653 169.273 8.41458 169.232 8.40088C169.191 8.38717 169.155 8.36225 169.127 8.32894C169.103 8.30612 169.084 8.27877 169.072 8.24852C169.059 8.21828 169.052 8.18576 169.052 8.1529C169.052 8.12004 169.059 8.08752 169.072 8.05728C169.084 8.02703 169.103 7.99968 169.127 7.97686C169.412 7.70606 169.758 7.50738 170.136 7.39735C170.514 7.28733 170.913 7.26915 171.299 7.34433C171.363 7.36118 171.418 7.40262 171.451 7.45963C171.485 7.51663 171.494 7.58458 171.478 7.64867C171.46 7.71179 171.418 7.76554 171.361 7.79884C171.305 7.83214 171.238 7.84247 171.174 7.82768C170.867 7.76981 170.552 7.78679 170.254 7.87718C169.955 7.96758 169.683 8.1287 169.461 8.34684C169.432 8.3745 169.398 8.39495 169.36 8.40651Z" fill="#04113A"/>
<path d="M195.484 33.3975C196.182 36.1842 196.91 39.0246 197.656 41.8173C198.402 44.61 199.22 47.3967 200.121 50.0939C201.022 52.7911 202.138 55.4645 203.17 58.2094C204.202 60.9544 205.253 63.7232 206.201 66.5218L203.814 67.6496C202.263 65.1195 200.831 62.5476 199.417 59.934C198.72 58.6291 198.04 57.3084 197.376 55.9717C196.701 54.6529 196.063 53.2327 195.496 51.7946C194.356 48.9661 193.408 46.1197 192.56 43.2554C191.713 40.3911 190.937 37.5268 190.281 34.579L195.484 33.3975Z" fill="#FFAC8C"/>
<path d="M192.859 27.3822C195.007 27.9789 197.788 35.2292 197.788 35.2292L189.69 41.3874C189.69 41.3874 186.492 35.3545 187.303 32.5678C188.156 29.6736 190.4 26.7139 192.859 27.3822Z" fill="#04113A"/>
<path d="M174.957 174.195C174.509 174.234 174.061 174.121 173.686 173.873C173.604 173.799 173.54 173.706 173.501 173.602C173.461 173.498 173.447 173.387 173.459 173.276C173.464 173.208 173.487 173.142 173.524 173.085C173.562 173.027 173.613 172.98 173.674 172.948C174.312 172.596 176.401 173.664 176.657 173.784C176.68 173.796 176.699 173.816 176.71 173.839C176.722 173.863 176.726 173.889 176.723 173.915C176.72 173.941 176.709 173.965 176.69 173.984C176.672 174.002 176.648 174.014 176.622 174.016C176.074 174.129 175.516 174.189 174.957 174.195ZM174.02 173.109C173.942 173.105 173.864 173.119 173.793 173.151C173.768 173.164 173.747 173.184 173.732 173.208C173.718 173.232 173.71 173.26 173.71 173.288C173.698 173.362 173.705 173.437 173.73 173.507C173.755 173.576 173.797 173.639 173.853 173.688C174.169 173.975 175.046 174.022 176.192 173.831C175.515 173.467 174.78 173.223 174.02 173.109Z" fill="#C579FF"/>
<path d="M176.58 174.01H176.532C175.906 173.724 174.67 172.596 174.742 172.005C174.742 171.862 174.867 171.689 175.208 171.653C175.331 171.639 175.457 171.651 175.576 171.688C175.696 171.725 175.806 171.786 175.9 171.868C176.556 172.417 176.675 173.825 176.681 173.885C176.683 173.907 176.679 173.929 176.67 173.949C176.66 173.969 176.646 173.986 176.628 173.998C176.613 174.006 176.597 174.01 176.58 174.01ZM175.333 171.886H175.261C175.034 171.886 175.017 171.999 175.011 172.029C174.957 172.387 175.792 173.276 176.431 173.664C176.381 173.069 176.147 172.504 175.762 172.047C175.644 171.942 175.491 171.884 175.333 171.886Z" fill="#C579FF"/>
<path d="M213.428 173.885H208.189L205.014 161.748H210.259L213.428 173.885Z" fill="#FFAC8C"/>
<path d="M213.476 173.276H207.586C207.539 173.272 207.491 173.279 207.447 173.296C207.403 173.313 207.363 173.339 207.33 173.374C207.297 173.408 207.273 173.449 207.258 173.495C207.244 173.54 207.239 173.587 207.246 173.634L207.604 178.295C207.643 178.547 207.768 178.778 207.959 178.948C208.149 179.118 208.393 179.216 208.648 179.226C210.695 179.19 211.632 179.071 214.245 179.071C215.839 179.071 217.426 179.238 219.616 179.238C221.806 179.238 221.454 177.06 220.493 176.851C216.191 175.968 216.048 174.75 214.407 173.587C214.135 173.392 213.81 173.284 213.476 173.276Z" fill="#04113A"/>
<g opacity="0.2">
<path d="M205.02 161.748L206.649 168.007H211.894L210.259 161.748H205.02Z" fill="black"/>
</g>
<path d="M190.03 59.2655C196.087 67.381 199.775 97.1816 202.454 113.114C205.241 129.685 212.091 166.82 212.091 166.82H205.008C205.008 166.82 195.371 129.047 190.322 113.055C184.743 95.3974 176.407 59.2894 176.407 59.2894L190.03 59.2655Z" fill="#04113A"/>
<path d="M212.598 167.046H204.28L203.671 164.397L212.986 164.069L212.598 167.046Z" fill="#C579FF"/>
<path d="M214.174 173.426C214.596 173.268 214.952 172.972 215.182 172.584C215.226 172.48 215.243 172.367 215.232 172.255C215.222 172.142 215.184 172.034 215.123 171.94C215.089 171.881 215.042 171.832 214.985 171.796C214.927 171.761 214.862 171.74 214.794 171.737C214.06 171.695 212.634 173.557 212.473 173.772C212.458 173.793 212.451 173.818 212.451 173.843C212.451 173.869 212.458 173.894 212.473 173.915C212.486 173.936 212.507 173.953 212.53 173.961C212.554 173.97 212.58 173.971 212.604 173.963C213.143 173.834 213.669 173.654 214.174 173.426ZM214.55 172.041C214.62 172.005 214.697 171.985 214.776 171.982C214.805 171.983 214.832 171.992 214.855 172.007C214.878 172.023 214.896 172.045 214.908 172.071C214.95 172.131 214.976 172.201 214.984 172.274C214.993 172.347 214.983 172.421 214.955 172.489C214.788 172.883 214.031 173.3 212.903 173.629C213.358 173.01 213.915 172.474 214.55 172.041Z" fill="#C579FF"/>
<path d="M212.628 173.957C212.644 173.95 212.659 173.94 212.67 173.927C213.112 173.402 213.738 171.85 213.398 171.355C213.314 171.236 213.147 171.122 212.801 171.242C212.684 171.283 212.577 171.347 212.485 171.432C212.394 171.516 212.321 171.618 212.27 171.731C211.912 172.507 212.413 173.831 212.431 173.891C212.439 173.911 212.452 173.929 212.469 173.942C212.486 173.956 212.506 173.965 212.527 173.969C212.543 173.975 212.561 173.977 212.579 173.975C212.597 173.973 212.613 173.967 212.628 173.957ZM212.837 171.504L212.909 171.474C213.124 171.397 213.177 171.474 213.189 171.474C213.398 171.767 213.022 172.93 212.592 173.557C212.38 172.998 212.346 172.387 212.497 171.809C212.569 171.668 212.69 171.56 212.837 171.504Z" fill="#C579FF"/>
<path d="M175.249 9.97574L174.223 9.73108C174.223 9.73108 174.784 10.5009 175.249 9.97574Z" fill="#04113A"/>
<path d="M190.311 57.9827L190.907 59.8744C190.985 60.0176 190.812 60.1727 190.567 60.1847L168.667 60.8351C168.476 60.8351 168.315 60.7515 168.297 60.6322L168.053 58.7286C168.053 58.5974 168.196 58.484 168.405 58.478L189.953 57.8335C190.02 57.826 190.088 57.8357 190.151 57.8618C190.214 57.8879 190.269 57.9295 190.311 57.9827Z" fill="#C579FF"/>
<path d="M187.488 60.5067H188.085C188.198 60.5067 188.282 60.4411 188.276 60.3695L187.93 57.899C187.93 57.8274 187.816 57.7737 187.703 57.7737H187.106C186.993 57.7737 186.909 57.8393 186.915 57.9109L187.261 60.3814C187.273 60.453 187.375 60.5067 187.488 60.5067Z" fill="#04113A"/>
<path d="M170.302 61.014H170.899C171.013 61.014 171.096 60.9483 171.09 60.8767L170.744 58.4122C170.744 58.3406 170.631 58.2809 170.517 58.2869H169.92C169.807 58.2869 169.724 58.3526 169.73 58.4242L170.076 60.8886C170.088 60.9662 170.189 61.0199 170.302 61.014Z" fill="#04113A"/>
<path d="M178.895 60.7573H179.492C179.605 60.7573 179.689 60.6917 179.683 60.6141L179.337 58.1496C179.337 58.078 179.223 58.0243 179.11 58.0243H178.513C178.4 58.0243 178.316 58.0899 178.322 58.1615L178.668 60.626C178.656 60.7096 178.782 60.7633 178.895 60.7573Z" fill="#04113A"/>
<path d="M205.599 65.5788L209.776 69.4038L204.489 70.0841C204.489 70.0841 202.508 67.369 203.451 65.4058L205.599 65.5788Z" fill="#FFAC8C"/>
<path d="M210.486 73.754L206.029 74.0822L204.477 70.0841L209.764 69.4098L210.486 73.754Z" fill="#FFAC8C"/>
<path d="M178.955 1.17402C178.955 1.17402 174.557 -0.842924 169.706 5.27354C175.548 7.01002 179.474 5.80463 179.474 5.80463L178.955 1.17402Z" fill="#04113A"/>
<path d="M178.322 0.630934C178.322 0.630934 179.385 16.0086 178.322 23.6706C184.493 21.7133 190.394 15.6088 190.394 15.6088C190.394 15.6088 189.529 -1.22489 178.322 0.630934Z" fill="#04113A"/>
<path d="M175.19 14.2603C173.805 14.2603 172.534 12.5476 172.349 10.4412C172.271 9.87581 172.306 9.30042 172.454 8.74902C172.601 8.19762 172.858 7.68139 173.208 7.2308C173.374 7.03548 173.579 6.87795 173.811 6.76884C174.043 6.65972 174.295 6.60155 174.551 6.59827C175.935 6.59827 177.212 8.31087 177.397 10.4173C177.476 10.9831 177.441 11.5591 177.292 12.1107C177.143 12.6623 176.885 13.1783 176.532 13.6277C176.367 13.823 176.161 13.9806 175.929 14.0897C175.698 14.1988 175.446 14.257 175.19 14.2603ZM174.551 6.89663C174.337 6.90172 174.127 6.95162 173.934 7.0431C173.741 7.13458 173.569 7.26562 173.429 7.42772C173.107 7.84818 172.872 8.32859 172.738 8.84087C172.604 9.35315 172.573 9.88704 172.647 10.4114C172.815 12.3627 173.96 13.9559 175.19 13.9559C175.404 13.9524 175.615 13.9026 175.809 13.8099C176.003 13.7172 176.174 13.5838 176.311 13.4189C176.635 12.9992 176.871 12.519 177.007 12.0066C177.142 11.4942 177.173 10.96 177.099 10.4352C176.926 8.48393 175.786 6.89663 174.551 6.89663Z" fill="white"/>
<path d="M169.992 14.2603C168.87 14.2603 167.844 12.5834 167.659 10.4412C167.534 9.00308 167.832 7.69624 168.435 7.03984C168.548 6.90537 168.688 6.79647 168.847 6.72034C169.005 6.64422 169.178 6.60261 169.354 6.59827C170.475 6.59827 171.496 8.27507 171.687 10.4173C171.806 11.8554 171.508 13.1563 170.905 13.8187C170.793 13.9524 170.653 14.0609 170.496 14.137C170.338 14.2131 170.167 14.2551 169.992 14.2603ZM169.354 6.89663C169.219 6.89964 169.087 6.93221 168.966 6.99201C168.845 7.05182 168.739 7.13742 168.655 7.24273C168.112 7.83946 167.838 9.08065 167.957 10.4173C168.118 12.3388 169.055 13.9619 169.992 13.9619C170.125 13.9568 170.256 13.9233 170.376 13.8636C170.495 13.804 170.6 13.7195 170.684 13.6158C171.227 13.0191 171.502 11.7779 171.388 10.4412C171.221 8.51973 170.302 6.89663 169.354 6.89663Z" fill="white"/>
<path d="M172.498 10.5786H172.433C172.307 10.5117 172.166 10.4767 172.024 10.4767C171.881 10.4767 171.741 10.5117 171.615 10.5786C171.582 10.5987 171.542 10.6049 171.504 10.596C171.466 10.5871 171.433 10.5637 171.412 10.5308C171.401 10.5149 171.394 10.4969 171.39 10.4779C171.386 10.459 171.386 10.4394 171.39 10.4205C171.394 10.4015 171.401 10.3835 171.412 10.3676C171.423 10.3517 171.438 10.3382 171.454 10.3279C171.624 10.239 171.814 10.1926 172.006 10.1926C172.198 10.1926 172.388 10.239 172.558 10.3279C172.593 10.3448 172.621 10.3746 172.636 10.4111C172.65 10.4477 172.65 10.4883 172.636 10.5249C172.618 10.5437 172.597 10.5584 172.573 10.5677C172.549 10.577 172.524 10.5807 172.498 10.5786Z" fill="white"/>
<path d="M197.549 101.448H34.4452V107.016H197.549V101.448Z" fill="#C579FF"/>
<path opacity="0.8" d="M197.549 101.448H34.4452V107.016H197.549V101.448Z" fill="white"/>
<path opacity="0.3" d="M197.555 101.448H149.817V107.016H197.555V101.448Z" fill="#C579FF"/>
<path d="M161.453 181.308H158.272L154.041 107.016H161.453V181.308Z" fill="#C579FF"/>
<path d="M194.368 181.308H197.555L193.324 107.016H185.913L194.368 181.308Z" fill="#C579FF"/>
<path d="M37.6317 181.308H34.4452L38.676 107.016H46.0873L37.6317 181.308Z" fill="#C579FF"/>
<path d="M70.5472 181.308H73.7278L77.9586 107.016H70.5472V181.308Z" fill="#C579FF"/>
<path d="M147.298 74.7745H112.497C112.091 74.7874 111.702 74.938 111.393 75.2015C111.084 75.465 110.873 75.8258 110.796 76.2245L106.989 98.023C106.951 98.1993 106.954 98.3818 106.997 98.557C107.039 98.7321 107.121 98.8953 107.236 99.0342C107.351 99.1732 107.496 99.2843 107.66 99.3593C107.824 99.4343 108.003 99.4711 108.183 99.4671H142.978C143.383 99.4544 143.772 99.3047 144.081 99.0424C144.39 98.7801 144.601 98.4207 144.679 98.023L148.486 76.2245C148.525 76.0484 148.523 75.8657 148.481 75.6903C148.439 75.5148 148.358 75.3512 148.244 75.2116C148.129 75.072 147.985 74.9602 147.821 74.8845C147.657 74.8088 147.479 74.7712 147.298 74.7745Z" fill="#C579FF"/>
<path opacity="0.2" d="M147.298 74.7745H112.497C112.091 74.7874 111.702 74.938 111.393 75.2015C111.084 75.465 110.873 75.8258 110.796 76.2245L106.989 98.023C106.951 98.1993 106.954 98.3818 106.997 98.557C107.039 98.7321 107.121 98.8953 107.236 99.0342C107.351 99.1732 107.496 99.2843 107.66 99.3593C107.824 99.4343 108.003 99.4711 108.183 99.4671H142.978C143.383 99.4544 143.772 99.3047 144.081 99.0424C144.39 98.7801 144.601 98.4207 144.679 98.023L148.486 76.2245C148.525 76.0484 148.523 75.8657 148.481 75.6903C148.439 75.5148 148.358 75.3512 148.244 75.2116C148.129 75.072 147.985 74.9602 147.821 74.8845C147.657 74.8088 147.479 74.7712 147.298 74.7745Z" fill="white"/>
<path d="M146.63 74.7746H111.823C111.417 74.7876 111.028 74.9381 110.719 75.2016C110.409 75.4651 110.199 75.8259 110.122 76.2247L106.315 98.0231C106.277 98.1994 106.28 98.3819 106.322 98.5571C106.365 98.7322 106.447 98.8954 106.562 99.0343C106.677 99.1733 106.822 99.2844 106.986 99.3594C107.15 99.4344 107.328 99.4712 107.509 99.4672H142.304C142.716 99.464 143.115 99.3185 143.432 99.0554C143.75 98.7923 143.967 98.4277 144.046 98.0231L147.853 76.2247C147.893 76.0455 147.891 75.8595 147.847 75.6813C147.803 75.5031 147.719 75.3374 147.6 75.1971C147.482 75.0568 147.333 74.9457 147.165 74.8724C146.996 74.7992 146.813 74.7657 146.63 74.7746Z" fill="#C579FF"/>
<path opacity="0.4" d="M146.63 74.7746H111.823C111.417 74.7876 111.028 74.9381 110.719 75.2016C110.409 75.4651 110.199 75.8259 110.122 76.2247L106.315 98.0231C106.277 98.1994 106.28 98.3819 106.322 98.5571C106.365 98.7322 106.447 98.8954 106.562 99.0343C106.677 99.1733 106.822 99.2844 106.986 99.3594C107.15 99.4344 107.328 99.4712 107.509 99.4672H142.304C142.716 99.464 143.115 99.3185 143.432 99.0554C143.75 98.7923 143.967 98.4277 144.046 98.0231L147.853 76.2247C147.893 76.0455 147.891 75.8595 147.847 75.6813C147.803 75.5031 147.719 75.3374 147.6 75.1971C147.482 75.0568 147.333 74.9457 147.165 74.8724C146.996 74.7992 146.813 74.7657 146.63 74.7746Z" fill="white"/>
<path d="M107.526 98.8704C107.435 98.8744 107.344 98.8583 107.259 98.8232C107.175 98.7882 107.099 98.735 107.037 98.6675C106.979 98.5909 106.939 98.5027 106.918 98.409C106.898 98.3153 106.898 98.2183 106.918 98.1245L110.725 76.326C110.778 76.0662 110.915 75.8313 111.116 75.6585C111.317 75.4856 111.57 75.3845 111.835 75.3713H146.63C146.722 75.3685 146.813 75.3857 146.898 75.4217C146.982 75.4578 147.058 75.5119 147.119 75.5801C147.177 75.6566 147.218 75.7447 147.239 75.8385C147.259 75.9323 147.259 76.0294 147.239 76.1231L143.449 97.9157C143.397 98.1755 143.259 98.4103 143.058 98.5832C142.857 98.7561 142.604 98.8571 142.34 98.8704H107.526Z" fill="white"/>
<path d="M142.495 99.467H98.7306C98.2172 99.4702 97.7258 99.6755 97.3627 100.039C96.9997 100.402 96.7944 100.893 96.7913 101.406H144.434C144.431 100.893 144.226 100.402 143.863 100.039C143.5 99.6755 143.008 99.4702 142.495 99.467Z" fill="#C579FF"/>
<path opacity="0.4" d="M142.495 99.467H98.7306C98.2172 99.4702 97.7258 99.6755 97.3627 100.039C96.9997 100.402 96.7944 100.893 96.7913 101.406H144.434C144.431 100.893 144.226 100.402 143.863 100.039C143.5 99.6755 143.008 99.4702 142.495 99.467Z" fill="white"/>
<path opacity="0.8" d="M142.495 99.467H132.744C132.231 99.4702 131.739 99.6755 131.376 100.039C131.013 100.402 130.808 100.893 130.805 101.406H144.434C144.431 100.893 144.226 100.402 143.863 100.039C143.5 99.6755 143.008 99.4702 142.495 99.467Z" fill="#C579FF"/>
<path d="M165.415 91.7097H159.024C158.632 91.7097 158.314 92.0276 158.314 92.4198V100.738C158.314 101.13 158.632 101.448 159.024 101.448H165.415C165.807 101.448 166.125 101.13 166.125 100.738V92.4198C166.125 92.0276 165.807 91.7097 165.415 91.7097Z" fill="#C579FF"/>
<path d="M159.34 96.4536L159.454 95.8927H158.917V95.296H159.561L159.716 94.5083H160.313L160.152 95.296H160.635L160.796 94.5083H161.423L161.262 95.296H161.566V95.8927H161.143L161.029 96.4536H161.566V97.0504H160.904L160.749 97.8261H160.158L160.313 97.0563H159.83L159.675 97.8321H159.078L159.233 97.0563H158.929V96.4596L159.34 96.4536ZM159.967 96.4536H160.45L160.564 95.8927H160.08L159.967 96.4536Z" fill="white"/>
<path d="M163.977 94.5023V97.7843H163.07V95.6301C162.938 95.7348 162.796 95.8267 162.646 95.9046C162.478 95.9822 162.304 96.048 162.127 96.1015V95.3676C162.385 95.2914 162.627 95.1702 162.843 95.0095C163.011 94.8723 163.146 94.6989 163.237 94.5023H163.977Z" fill="white"/>
<path d="M166.859 100.38C165.314 100.38 164.102 98.7092 164.102 96.5789C164.102 94.4485 165.337 92.7717 166.859 92.7717C168.381 92.7717 169.616 94.4784 169.616 96.5789C169.616 98.6793 168.405 100.38 166.859 100.38ZM166.859 93.6489C165.839 93.6489 164.979 94.9856 164.979 96.5789C164.979 98.1721 165.839 99.5028 166.859 99.5028C167.88 99.5028 168.739 98.1662 168.739 96.5789C168.739 94.9916 167.874 93.6489 166.859 93.6489Z" fill="#C579FF"/>
<path d="M75.154 73.5629L74.5991 74.4222L74.0023 75.3651C73.6145 75.9976 73.2385 76.6421 72.8626 77.2925C72.1226 78.5934 71.4066 79.9121 70.7442 81.2488C69.4128 83.8811 68.2972 86.6171 67.4085 89.4299C67.1937 90.1221 67.0027 90.8143 66.8118 91.5065L66.5671 92.5508L66.4657 93.07L66.4119 93.3325C66.4119 93.4161 66.3761 93.5295 66.3761 93.5056C66.3761 93.4817 66.3284 93.5056 66.2687 93.3504C66.2047 93.2123 66.106 93.0931 65.9823 93.0043C65.8809 92.9447 65.863 93.0043 65.9167 93.058C66.0402 93.1703 66.1788 93.2647 66.3284 93.3385C66.838 93.5889 67.3774 93.7734 67.9336 93.8875C68.609 94.0449 69.2922 94.1664 69.9804 94.2515C71.4006 94.4365 72.964 94.526 74.432 94.6036H74.5812C75.0645 94.6287 75.5243 94.8206 75.8822 95.1464C76.2401 95.4723 76.4741 95.912 76.5445 96.3909C76.6148 96.8698 76.5171 97.3583 76.2679 97.7733C76.0188 98.1883 75.6336 98.5042 75.1779 98.6673C73.5302 99.2582 71.8268 99.6801 70.0938 99.9264C68.1562 100.242 66.1766 100.192 64.2578 99.7772C63.6379 99.625 63.0373 99.4028 62.4676 99.1148C61.7475 98.7496 61.0972 98.2608 60.5461 97.6708C59.9022 96.9709 59.4248 96.1345 59.1498 95.2242C58.9162 94.4025 58.8333 93.5453 58.9051 92.694C58.9051 92.4673 58.9051 92.3837 58.9409 92.2704L58.9827 91.9422L59.0603 91.2738C59.1259 90.8382 59.1856 90.3966 59.2572 89.961C59.4064 89.0898 59.5734 88.2245 59.7823 87.3772C60.5992 84.0238 61.7465 80.7596 63.2075 77.6326C63.9296 76.0931 64.6993 74.5774 65.5407 73.1035C65.9584 72.3635 66.4 71.6355 66.8535 70.9135C67.0803 70.5495 67.313 70.1914 67.5577 69.8274C67.8023 69.4634 68.0291 69.1352 68.3394 68.7056C68.982 67.8413 69.9336 67.2586 70.9956 67.0791C72.0576 66.8997 73.1479 67.1374 74.0388 67.7427C74.9297 68.3479 75.5524 69.2738 75.7768 70.3272C76.0013 71.3806 75.8103 72.48 75.2435 73.3959L75.154 73.5629Z" fill="#C579FF"/>
<path d="M91.1105 49.4789C91.1702 49.8847 91.4327 50.1771 91.7072 50.1413C91.9817 50.1055 92.1369 49.7415 92.0772 49.3417C92.0175 48.9419 91.755 48.6435 91.4805 48.6793C91.206 48.7151 91.0508 49.0791 91.1105 49.4789Z" fill="#04113A"/>
<path d="M91.397 50.1832C92.0601 51.3421 92.8793 52.4042 93.8317 53.3399C93.5862 53.5771 93.2918 53.7577 92.9692 53.869C92.6465 53.9804 92.3034 54.0197 91.9639 53.9844L91.397 50.1832Z" fill="#A02724"/>
<path d="M89.3503 47.4622C89.4009 47.458 89.4479 47.4345 89.4816 47.3965C89.6899 47.1801 89.9471 47.0168 90.2316 46.9202C90.5161 46.8236 90.8195 46.7967 91.1166 46.8416C91.179 46.8541 91.2438 46.8417 91.2973 46.8072C91.3508 46.7726 91.3887 46.7186 91.403 46.6566C91.4154 46.5949 91.4029 46.5308 91.3682 46.4783C91.3336 46.4258 91.2796 46.389 91.218 46.3761C90.8436 46.3139 90.4597 46.3433 90.0991 46.4618C89.7385 46.5803 89.412 46.7843 89.1474 47.0564C89.1033 47.102 89.0786 47.163 89.0786 47.2265C89.0786 47.2899 89.1033 47.3509 89.1474 47.3965C89.1743 47.4217 89.2064 47.4406 89.2415 47.452C89.2766 47.4633 89.3137 47.4668 89.3503 47.4622Z" fill="#04113A"/>
<path d="M79.2894 53.9247C79.4625 57.6841 79.1761 64.4748 76.2581 66.5335C76.2581 66.5335 76.7056 70.3824 83.4904 71.3969C90.9435 72.5068 87.6078 68.2223 87.6078 68.2223C83.6814 66.6469 84.2363 63.6394 85.3701 60.9124L79.2894 53.9247Z" fill="#FFAC8C"/>
<path d="M75.0884 68.0373C74.796 66.3366 74.4917 64.3972 75.7746 64.0989C77.1829 63.7707 84.4749 64.7433 86.7783 66.4858C89.0817 68.2282 87.9001 71.2596 87.9001 71.2596L75.0884 68.0373Z" fill="#E0E0E0"/>
<path d="M94.7507 74.3746C95.0252 80.3896 94.7507 92.3182 90.669 110.375H63.685C63.5179 106.622 67.3907 90.4385 67.0565 72.656C67.0399 71.7646 67.2008 70.8789 67.5299 70.0503C67.859 69.2218 68.3497 68.467 68.9734 67.83C69.5971 67.193 70.3413 66.6864 71.1627 66.3399C71.9841 65.9934 72.8663 65.8137 73.7578 65.8115C74.2889 65.8115 74.8498 65.8115 75.4286 65.8772C79.246 66.1427 83.044 66.6369 86.8022 67.3571C87.9241 67.6136 89.0161 67.912 90.0067 68.2163C91.3354 68.6293 92.5042 69.4424 93.3533 70.5447C94.2024 71.6469 94.6904 72.9845 94.7507 74.3746Z" fill="#C579FF"/>
<path opacity="0.2" d="M90.6749 85.199C90.2453 88.2542 89.2547 93.5532 92.8291 99.413C93.2349 96.9843 93.5631 94.7108 93.8316 92.5865L90.6749 85.199Z" fill="black"/>
<path d="M111.704 92.5926L116.245 91.0292L114.395 86.2554C113.363 86.4051 112.391 86.8322 111.583 87.4912C110.775 88.1501 110.16 89.0162 109.806 89.9968L111.704 92.5926Z" fill="#FFAC8C"/>
<path d="M118.65 89.6687L119.133 85.8138L114.395 86.2077L116.245 90.9994L118.65 89.6687Z" fill="#FFAC8C"/>
<path d="M94.7207 73.8195C94.9714 74.6967 95.2817 75.7171 95.58 76.6719C95.8784 77.6266 96.1768 78.6053 96.5229 79.566C97.1673 81.4875 97.8774 83.3791 98.6233 85.2289C99.3693 87.0788 100.205 88.8749 101.106 90.5517C101.929 92.138 102.93 93.6255 104.089 94.9854L99.7154 94.3111C100.557 93.9471 101.422 93.5712 102.293 93.1177C103.164 92.6642 104.054 92.2584 104.931 91.781L107.616 90.3668C108.511 89.8953 109.406 89.3822 110.319 88.9406L110.415 88.8928C110.841 88.6791 111.327 88.6159 111.794 88.7134C112.26 88.811 112.68 89.0636 112.985 89.4301C113.29 89.7966 113.462 90.2555 113.473 90.7322C113.484 91.2088 113.334 91.6752 113.046 92.0555C112.379 92.9373 111.665 93.7838 110.91 94.5916C110.164 95.3972 109.382 96.161 108.571 96.9129C107.759 97.6647 106.9 98.3748 106.005 99.0551C105.11 99.7354 104.161 100.392 103.153 101C102.507 101.386 101.752 101.55 101.005 101.467C100.257 101.384 99.557 101.059 99.0112 100.541L98.7785 100.32C97.01 98.6056 95.4752 96.6654 94.2135 94.5498C93.0156 92.6043 91.949 90.5809 91.021 88.493C90.0842 86.4463 89.2786 84.3696 88.5446 82.2811C88.1806 81.2368 87.8285 80.1866 87.5123 79.1304C87.196 78.0742 86.9155 77.0359 86.6112 75.8663C86.3255 74.7956 86.4769 73.6554 87.032 72.6963C87.587 71.7373 88.5003 71.038 89.571 70.7523C90.6416 70.4667 91.7819 70.618 92.7409 71.1731C93.7 71.7281 94.3993 72.6414 94.6849 73.7121L94.7207 73.8195Z" fill="#C579FF"/>
<path d="M77.5588 50.6364C78.6031 55.5296 78.9611 58.4476 81.8374 60.6137C86.1637 63.8719 91.928 60.6973 92.3696 55.5833C92.7635 50.9825 90.9972 43.7502 85.8653 42.503C84.7345 42.2233 83.551 42.2373 82.4272 42.5437C81.3034 42.8501 80.2766 43.4388 79.4443 44.2537C78.612 45.0687 78.0019 46.0829 77.6719 47.2C77.3419 48.3171 77.303 49.5001 77.5588 50.6364Z" fill="#FFAC8C"/>
<path d="M88.1031 51.1499C90.4422 50.9709 90.305 49.8908 89.7799 49.0972C89.2547 48.3035 88.6162 45.4511 88.6162 45.4511C88.6162 45.4511 91.8684 46.3104 91.2001 43.1955C90.5317 40.0806 86.1398 36.1362 82.3029 38.553C74.6588 37.2939 72.1585 40.379 73.3519 43.2313C67.2832 45.9166 71.6632 51.3528 74.08 51.3528C71.9258 53.2743 75.1421 56.0431 80.3575 59.152C84.1766 54.5513 89.8097 55.7865 88.1031 51.1499Z" fill="#04113A"/>
<path d="M83.377 40.1163C83.2976 40.1152 83.2193 40.0982 83.1465 40.0665C83.0738 40.0347 83.0081 39.9887 82.9533 39.9313C82.064 39.0369 80.9557 38.3916 79.7389 38.0596C78.5222 37.7277 77.2396 37.7208 76.0193 38.0397C75.8659 38.0755 75.7044 38.0493 75.5703 37.9665C75.4361 37.8838 75.3401 37.7513 75.3033 37.5981C75.2674 37.4446 75.2937 37.2832 75.3764 37.149C75.4591 37.0148 75.5916 36.9188 75.7448 36.882C77.1684 36.5187 78.6621 36.5324 80.0788 36.9216C81.4955 37.3108 82.7864 38.0622 83.8245 39.1018C83.9357 39.2136 83.9981 39.3649 83.9981 39.5225C83.9981 39.6802 83.9357 39.8314 83.8245 39.9432C83.766 40.0015 83.696 40.0469 83.6189 40.0767C83.5419 40.1065 83.4595 40.12 83.377 40.1163Z" fill="#04113A"/>
<path d="M75.4703 56.789C75.3918 56.7895 75.3139 56.7744 75.2412 56.7447C75.1685 56.715 75.1024 56.6713 75.0466 56.616C73.3639 54.9213 72.6597 53.5965 72.8745 52.4389C72.9748 52.0015 73.1821 51.5958 73.4779 51.2583C73.7737 50.9209 74.1487 50.6622 74.5693 50.5055C74.7125 50.4374 74.8769 50.4291 75.0263 50.4822C75.1757 50.5354 75.2978 50.6457 75.3659 50.7889C75.4339 50.9322 75.4423 51.0966 75.3891 51.246C75.336 51.3954 75.2257 51.5175 75.0824 51.5856C74.4559 51.8839 74.1217 52.23 74.0501 52.6418C73.9785 53.0535 74.2172 54.0859 75.894 55.7686C75.9499 55.8241 75.9943 55.8901 76.0246 55.9628C76.0549 56.0355 76.0705 56.1135 76.0705 56.1923C76.0705 56.2711 76.0549 56.3491 76.0246 56.4218C75.9943 56.4945 75.9499 56.5605 75.894 56.616C75.8382 56.6713 75.7721 56.715 75.6994 56.7447C75.6267 56.7744 75.5488 56.7895 75.4703 56.789Z" fill="#04113A"/>
<path d="M85.2268 50.768C85.6273 51.9461 86.4029 52.9606 87.4347 53.6561C88.8012 54.5572 89.7262 53.5368 89.5471 52.0629C89.386 50.7322 88.479 48.6615 87.011 48.3453C85.5431 48.029 84.7673 49.3418 85.2268 50.768Z" fill="#FFAC8C"/>
<path d="M131.885 176.94C132.529 176.94 133.156 176.851 133.365 176.564C133.419 176.487 133.447 176.395 133.447 176.302C133.447 176.208 133.419 176.116 133.365 176.039C133.324 175.969 133.27 175.909 133.206 175.86C133.141 175.812 133.067 175.777 132.989 175.759C132.148 175.532 130.387 176.534 130.31 176.582C130.289 176.593 130.272 176.611 130.263 176.633C130.253 176.654 130.25 176.678 130.256 176.701C130.259 176.725 130.269 176.748 130.285 176.766C130.301 176.784 130.322 176.797 130.345 176.803C130.854 176.891 131.369 176.936 131.885 176.94ZM132.685 175.961C132.761 175.961 132.837 175.971 132.911 175.991C132.961 176.001 133.007 176.021 133.048 176.049C133.09 176.078 133.124 176.115 133.15 176.158C133.234 176.308 133.204 176.379 133.15 176.421C132.911 176.749 131.634 176.755 130.698 176.624C131.318 176.274 132.001 176.049 132.708 175.961H132.685Z" fill="#C579FF"/>
<path d="M130.357 176.803H130.405C131.002 176.534 132.225 175.442 132.13 174.87C132.13 174.738 132.016 174.571 131.688 174.535C131.57 174.523 131.45 174.535 131.336 174.57C131.223 174.604 131.117 174.662 131.026 174.738C130.381 175.269 130.244 176.63 130.238 176.684C130.237 176.705 130.242 176.725 130.251 176.744C130.261 176.763 130.275 176.779 130.292 176.791C130.311 176.803 130.335 176.808 130.357 176.803ZM131.593 174.756H131.664C131.879 174.756 131.891 174.864 131.897 174.887C131.951 175.234 131.133 176.081 130.507 176.463C130.564 175.887 130.797 175.343 131.175 174.905C131.292 174.808 131.44 174.755 131.593 174.756Z" fill="#C579FF"/>
<path d="M124.623 176.683H129.671L128.71 165H123.662L124.623 176.683Z" fill="#FFAC8C"/>
<path d="M129.677 176.099H124.169C124.073 176.095 123.979 176.13 123.908 176.194C123.837 176.259 123.794 176.349 123.787 176.445L123.459 180.908C123.455 181.024 123.474 181.14 123.516 181.248C123.557 181.356 123.619 181.455 123.699 181.539C123.779 181.623 123.875 181.69 123.982 181.737C124.088 181.783 124.203 181.808 124.318 181.809C126.3 181.773 129.152 181.66 131.652 181.66C134.57 181.66 134.875 181.815 138.3 181.815C140.37 181.815 140.633 179.721 139.738 179.536C135.668 178.671 134.672 178.575 130.948 176.475C130.563 176.243 130.126 176.114 129.677 176.099Z" fill="#04113A"/>
<path opacity="0.2" d="M128.704 165.006L129.206 171.027H124.157L123.662 165.006H128.704Z" fill="black"/>
<path d="M100.485 176.94C100.911 176.989 101.338 176.872 101.679 176.612C101.742 176.525 101.776 176.421 101.776 176.314C101.776 176.206 101.742 176.102 101.679 176.015C101.639 175.945 101.585 175.884 101.52 175.837C101.456 175.79 101.381 175.757 101.303 175.741C100.569 175.568 99.1724 176.522 99.1127 176.564C99.0947 176.578 99.0808 176.596 99.0724 176.617C99.064 176.638 99.0614 176.661 99.065 176.684C99.0685 176.706 99.0791 176.727 99.0952 176.743C99.1112 176.759 99.132 176.77 99.1545 176.773C99.5906 176.878 100.037 176.934 100.485 176.94ZM101.118 175.979C101.167 175.973 101.217 175.973 101.267 175.979C101.313 175.989 101.357 176.008 101.395 176.036C101.433 176.064 101.465 176.099 101.488 176.14C101.595 176.337 101.529 176.421 101.488 176.445C101.273 176.731 100.241 176.731 99.4887 176.606C99.9664 176.281 100.511 176.067 101.082 175.979H101.118Z" fill="#C579FF"/>
<path d="M99.1843 176.803H99.238C99.7631 176.516 100.772 175.412 100.664 174.851C100.646 174.763 100.599 174.683 100.529 174.626C100.46 174.568 100.373 174.536 100.282 174.535C100.192 174.524 100.1 174.532 100.012 174.559C99.9247 174.585 99.844 174.63 99.7751 174.69C99.1783 175.168 99.0649 176.624 99.0649 176.683C99.0625 176.705 99.0662 176.728 99.0757 176.748C99.0852 176.768 99.1001 176.785 99.1187 176.797C99.1395 176.805 99.1623 176.807 99.1843 176.803ZM100.199 174.756H100.252C100.408 174.756 100.425 174.846 100.431 174.875C100.491 175.21 99.8347 176.069 99.3275 176.439C99.3639 175.864 99.5718 175.313 99.9242 174.857C100.001 174.793 100.098 174.757 100.199 174.756Z" fill="#C579FF"/>
<path d="M94.5656 176.683H99.608L102.144 165H97.1017L94.5656 176.683Z" fill="#FFAC8C"/>
<path d="M99.966 176.099H94.3031C94.2025 176.098 94.1048 176.132 94.0265 176.195C93.9482 176.258 93.8941 176.346 93.8734 176.445L92.8769 180.908C92.8525 181.017 92.8532 181.131 92.8789 181.24C92.9047 181.348 92.9547 181.45 93.0254 181.537C93.096 181.623 93.1854 181.693 93.2868 181.74C93.3882 181.787 93.499 181.811 93.6109 181.809C95.592 181.773 96.5527 181.66 99.0471 181.66C100.581 181.66 102.544 181.815 104.662 181.815C106.781 181.815 107.049 179.721 106.19 179.536C102.305 178.682 102.013 177.513 100.79 176.391C100.56 176.196 100.267 176.092 99.966 176.099Z" fill="#04113A"/>
<path d="M82.5833 110.375C82.5833 110.375 110.57 118.867 111.262 130.109C112.533 150.815 102.377 168.461 102.377 168.461H94.8103C94.8103 168.461 97.6865 159.713 98.7188 140.958C100.014 117.387 55.4441 141.507 63.685 110.375H82.5833Z" fill="black"/>
<g opacity="0.2">
<path d="M97.0958 165.006H102.144L100.837 171.027H95.7889L97.0958 165.006Z" fill="black"/>
</g>
<path d="M90.669 110.375C90.669 110.375 126.861 112.762 128.293 131.971C129.934 154.05 130.411 168.461 130.411 168.461H122.916C122.916 168.461 119.061 154.921 115.755 135.456C114.759 129.626 102.395 128.623 90.6928 127.931C80.6081 127.334 72.8626 126.738 72.0153 115.567L72.1465 110.375H90.669Z" fill="#04113A"/>
<path d="M132.243 166.456C132.285 166.456 131.76 170.036 131.76 170.036H121.371L121.09 166.867L132.243 166.456Z" fill="#C579FF"/>
<path d="M104.662 166.456C104.704 166.456 103.707 170.036 103.707 170.036H93.3244L93.5154 166.867L104.662 166.456Z" fill="#C579FF"/>
<path d="M89.0399 126.344L83.9736 91.9303C83.8375 90.9987 83.3707 90.1472 82.6585 89.5315C81.9463 88.9157 81.0364 88.5768 80.0949 88.5767H50.2048C49.6415 88.5766 49.0848 88.698 48.5726 88.9324C48.0605 89.1669 47.6048 89.509 47.2367 89.9354C46.8687 90.3618 46.5968 90.8625 46.4397 91.4034C46.2825 91.9443 46.2438 92.5128 46.3261 93.07L51.2192 126.344C51.2192 126.726 51.2948 127.106 51.4415 127.459C51.5882 127.813 51.8032 128.134 52.0743 128.405C52.3453 128.675 52.667 128.89 53.021 129.036C53.375 129.182 53.7543 129.256 54.1372 129.256H108.624C108.624 128.873 108.549 128.494 108.402 128.14C108.256 127.786 108.04 127.465 107.769 127.194C107.498 126.924 107.177 126.71 106.823 126.564C106.469 126.418 106.089 126.343 105.706 126.344H89.0399Z" fill="#C579FF"/>
<path opacity="0.5" d="M89.0399 126.344L83.9736 91.9303C83.8375 90.9987 83.3707 90.1472 82.6585 89.5315C81.9463 88.9157 81.0364 88.5768 80.0949 88.5767H50.2048C49.6415 88.5766 49.0848 88.698 48.5726 88.9324C48.0605 89.1669 47.6048 89.509 47.2367 89.9354C46.8687 90.3618 46.5968 90.8625 46.4397 91.4034C46.2825 91.9443 46.2438 92.5128 46.3261 93.07L51.2192 126.344C51.2192 126.726 51.2948 127.106 51.4415 127.459C51.5882 127.813 51.8032 128.134 52.0743 128.405C52.3453 128.675 52.667 128.89 53.021 129.036C53.375 129.182 53.7543 129.256 54.1372 129.256H108.624C108.624 128.873 108.549 128.494 108.402 128.14C108.256 127.786 108.04 127.465 107.769 127.194C107.498 126.924 107.177 126.71 106.823 126.564C106.469 126.418 106.089 126.343 105.706 126.344H89.0399Z" fill="white"/>
<path opacity="0.3" d="M80.0949 88.5767H50.2048C49.6415 88.5766 49.0848 88.698 48.5726 88.9324C48.0605 89.1669 47.6048 89.509 47.2367 89.9354C46.8687 90.3618 46.5968 90.8625 46.4397 91.4034C46.2825 91.9443 46.2438 92.5128 46.3261 93.07L51.2192 126.344C51.2192 126.726 51.2948 127.106 51.4415 127.459C51.5882 127.813 51.8032 128.134 52.0743 128.405C52.3453 128.675 52.667 128.89 53.021 129.036C53.375 129.182 53.7543 129.256 54.1372 129.256H85.8295L80.0949 88.5767Z" fill="#C579FF"/>
<path d="M51.6012 182.245H49.9125L54.1373 129.255H55.832L51.6012 182.245Z" fill="#C579FF"/>
<path opacity="0.6" d="M51.6012 182.245H49.9125L54.1373 129.255H55.832L51.6012 182.245Z" fill="white"/>
<path d="M80.3336 182.245H78.6449L82.8757 129.255H84.5644L80.3336 182.245Z" fill="#C579FF"/>
<path opacity="0.6" d="M80.3336 182.245H78.6449L82.8757 129.255H84.5644L80.3336 182.245Z" fill="white"/>
<path d="M82.9353 182.245H81.2406L77.0158 129.255H78.7045L82.9353 182.245Z" fill="#C579FF"/>
<path opacity="0.7" d="M82.9353 182.245H81.2406L77.0158 129.255H78.7045L82.9353 182.245Z" fill="white"/>
<path d="M111.668 182.245H109.979L105.748 129.255H107.437L111.668 182.245Z" fill="#C579FF"/>
<path opacity="0.7" d="M111.668 182.245H109.979L105.748 129.255H107.437L111.668 182.245Z" fill="white"/>
</svg>
