<svg width="90" height="90" viewBox="0 0 90 90" fill="none" xmlns="http://www.w3.org/2000/svg">
<path d="M76.875 42.375V26.4C76.875 11.2875 73.35 7.5 59.175 7.5H30.825C16.65 7.5 13.125 11.2875 13.125 26.4V68.625C13.125 78.6 18.6 80.9625 25.2375 73.8375L25.275 73.8C28.35 70.5375 33.0375 70.7999 35.7 74.3624L39.4875 79.425" fill="#CCCCCC"/>
<path d="M76.875 42.375V26.4C76.875 11.2875 73.35 7.5 59.175 7.5H30.825C16.65 7.5 13.125 11.2875 13.125 26.4V68.625C13.125 78.6 18.6 80.9625 25.2375 73.8375L25.275 73.8C28.35 70.5375 33.0375 70.7999 35.7 74.3624L39.4875 79.425" stroke="#CCCCCC" stroke-width="1.5" stroke-linecap="round" stroke-linejoin="round"/>
<path d="M30 26.25H60" stroke="white" stroke-width="1.5" stroke-linecap="round" stroke-linejoin="round"/>
<path d="M33.75 41.25H56.25" stroke="white" stroke-width="1.5" stroke-linecap="round" stroke-linejoin="round"/>
<path d="M68.2913 55.3885L55.0164 68.6636C54.4914 69.1886 54.0038 70.1635 53.8913 70.876L53.1788 75.9386C52.9163 77.7761 54.1913 79.0511 56.0288 78.7886L61.0913 78.0761C61.8038 77.9636 62.8163 77.476 63.3038 76.951L76.5789 63.6761C78.8664 61.3886 79.9539 58.7261 76.5789 55.3511C73.2414 52.0136 70.5788 53.101 68.2913 55.3885Z" fill="#CCCCCC" stroke="#CCCCCC" stroke-width="1.5" stroke-miterlimit="10" stroke-linecap="round" stroke-linejoin="round"/>
<path d="M66.3721 57.301C67.4971 61.351 70.6471 64.501 74.6971 65.626" stroke="white" stroke-width="1.5" stroke-miterlimit="10" stroke-linecap="round" stroke-linejoin="round"/>
</svg>
