<svg width="88" height="87" viewBox="0 0 88 87" fill="none" xmlns="http://www.w3.org/2000/svg">
<rect x="0.5" width="87" height="87" rx="43.5" fill="#E9F9EF"/>
<path d="M44.0002 18.2709C30.0989 18.2709 18.771 29.5988 18.771 43.5C18.771 57.4013 30.0989 68.7292 44.0002 68.7292C57.9014 68.7292 69.2293 57.4013 69.2293 43.5C69.2293 29.5988 57.9014 18.2709 44.0002 18.2709ZM56.0597 37.6973L41.7548 52.0023C41.4016 52.3555 40.9222 52.5573 40.4176 52.5573C39.913 52.5573 39.4337 52.3555 39.0805 52.0023L31.9406 44.8624C31.209 44.1308 31.209 42.9198 31.9406 42.1881C32.6723 41.4565 33.8833 41.4565 34.6149 42.1881L40.4176 47.9908L53.3854 35.023C54.1171 34.2914 55.3281 34.2914 56.0597 35.023C56.7914 35.7547 56.7914 36.9405 56.0597 37.6973Z" fill="#22C55E"/>
</svg>
